<svg viewBox="4.45945945945946 4.309999999999999 92.43243243243242 90.99000000000001" version="1.1" xmlns="http://www.w3.org/2000/svg" style="max-height: 500px" width="92.43243243243242" height="90.99000000000001">
 <path d="m50 9.9023v0.003906h-0.003906c-22.145 0-40.094 17.949-40.094 40.094s17.953 40.098 40.098 40.098 40.098-17.953 40.098-40.098-17.953-40.098-40.098-40.098zm16.473 8.0078c3.7852 1.9414 7.1797 4.5391 10.039 7.6367h-0.007813c-1.8906 0.78906-3.9453 1.5039-6.1406 2.1211-1.0586-3.5664-2.3633-6.8594-3.8945-9.7578zm-32.945-0.003906h0.007812c-1.5312 2.9023-2.8398 6.1953-3.8984 9.7617v0.003906c-2.1953-0.62109-4.2461-1.3359-6.1406-2.125h-0.003906c2.8594-3.1016 6.2539-5.6953 10.035-7.6406zm14.484-3.918h0.003906v16.293c-5.2305-0.12109-10.094-0.70703-14.492-1.6484h-0.003907c1.6445-5.4688 3.8789-9.9844 6.4336-13.277 2.5781-0.75 5.2734-1.2148 8.0586-1.3672zm3.9727 0h0.003906v0.003907c2.7812 0.14844 5.4805 0.61328 8.0586 1.3594h-0.003906c2.5586 3.293 4.793 7.8125 6.4375 13.277l-0.003907 0.003906c-4.3984 0.94141-9.2617 1.5273-14.492 1.6484zm-31.148 14.789 0.003906 0.003906c2.4062 1.0547 5.0156 1.9766 7.7852 2.75h-0.003906c-1.1992 5.1484-1.9062 10.742-2.0391 16.484h-12.594c0.39062-7.1719 2.8711-13.785 6.8477-19.238zm11.656 3.7148v0.003906h0.007812c4.8789 1.0625 10.133 1.6914 15.52 1.8164h-0.003906v13.703h-17.402c0.12891-5.6445 0.80078-10.863 1.8789-15.523zm35.008 0 0.007812 0.003906c1.0781 4.6602 1.75 9.8789 1.8789 15.52h-17.402v-13.699h-0.003906c5.3867-0.12891 10.641-0.75781 15.52-1.8242zm11.656-3.7148h0.007812v0.003906c3.9766 5.4492 6.457 12.062 6.8477 19.234h-12.594c-0.13281-5.7422-0.83984-11.332-2.0391-16.48h-0.003906c2.7695-0.77734 5.3789-1.6992 7.7812-2.7578zm-48.535 23.211h17.395v13.699l-0.003906 0.003906c-5.3867 0.12109-10.641 0.75-15.516 1.8164-1.082-4.6602-1.7539-9.8789-1.8828-15.52zm21.363 0h17.406-0.003906c-0.12891 5.6367-0.80078 10.859-1.8828 15.52-4.8789-1.0664-10.129-1.6953-15.516-1.8203l-0.003906 0.003906zm-25.395-0.003906v0.003906h-0.007813c0.13281 5.7422 0.83984 11.336 2.0391 16.484h-0.003906c-2.7656 0.77344-5.375 1.6953-7.7773 2.7539-3.9766-5.457-6.4609-12.07-6.8516-19.238h-0.003906zm46.828 0v0.003906h0.003906l12.582-0.003906h0.007813c-0.39062 7.1719-2.8711 13.785-6.8516 19.242h-0.003906c-2.3984-1.0586-5.0078-1.9805-7.7695-2.7539h-0.007813c1.1992-5.1523 1.9062-10.746 2.0391-16.488zm-3.0586 20.348v0.003907h0.007813c2.1992 0.61719 4.2539 1.3281 6.1445 2.1211h-0.003907c-2.8594 3.0977-6.2578 5.6953-10.043 7.6406 1.5312-2.9062 2.8398-6.1953 3.8945-9.7656zm-40.727 0 0.007813 0.003907c1.0547 3.5664 2.3633 6.8594 3.8945 9.7617h-0.003906c-3.7812-1.9492-7.1758-4.543-10.035-7.6367h-0.003906c1.8906-0.79688 3.9453-1.5078 6.1406-2.1289zm18.379-2.6133v0.003906h0.003906v16.289c-2.7773-0.14844-5.4766-0.61328-8.0508-1.3594h-0.003906c-2.5586-3.293-4.793-7.8125-6.4414-13.277h-0.003906c4.3984-0.94922 9.2656-1.5352 14.496-1.6562zm3.9727 0v0.003906h0.003906c5.2344 0.11719 10.102 0.70312 14.496 1.6484h-0.003906c-1.6445 5.4688-3.8828 9.9883-6.4414 13.281h-0.007812c-2.5742 0.74609-5.2695 1.2109-8.0469 1.3594z"/>
<text fill="#000000" font-family="Arbeit Regular, Helvetica, Arial-Unicode, Arial, Sans-serif" font-weight="bold" font-size="5.0" y="117.5" x="0.0">Created by My Project</text><text fill="#000000" font-family="Arbeit Regular, Helvetica, Arial-Unicode, Arial, Sans-serif" font-weight="bold" font-size="5.0" y="122.5" x="0.0">from Noun Project</text></svg>